<?xml version="1.0" standalone="no"?>
<!DOCTYPE svg PUBLIC "-//W3C//DTD SVG 20010904//EN"
 "http://www.w3.org/TR/2001/REC-SVG-20010904/DTD/svg10.dtd">
<svg version="1.0" xmlns="http://www.w3.org/2000/svg"
 width="980.000000pt" height="980.000000pt" viewBox="0 0 980.000000 980.000000"
 preserveAspectRatio="xMidYMid meet">
<metadata>
Created by potrace 1.14, written by Peter Selinger 2001-2017
</metadata>
<g transform="translate(0.000000,980.000000) scale(0.100000,-0.100000)"
fill="#000000" stroke="none">
<path d="M4390 8099 c-326 -24 -530 -75 -775 -193 -446 -216 -821 -604 -1102
-1141 -210 -404 -379 -923 -442 -1360 -40 -278 -45 -560 -15 -867 l7 -68 -73
0 c-48 0 -104 9 -169 27 -79 23 -117 28 -211 28 -63 0 -128 -4 -143 -8 -33 -9
-50 -46 -38 -81 8 -19 24 -26 99 -44 117 -27 260 -81 397 -150 101 -50 108
-55 85 -64 -29 -11 -113 -5 -305 24 -112 16 -170 19 -290 15 -82 -3 -160 -8
-173 -12 -29 -10 -45 -47 -33 -79 8 -19 24 -26 99 -44 86 -20 328 -119 317
-130 -3 -3 -37 -14 -75 -23 -163 -42 -289 -136 -349 -261 -66 -139 -93 -319
-72 -469 42 -285 215 -491 476 -567 262 -75 562 -11 860 185 88 58 251 189
289 231 22 25 32 26 86 10 40 -13 40 -13 40 -64 0 -41 -8 -65 -36 -116 -62
-109 -140 -270 -169 -348 -37 -101 -39 -184 -4 -260 106 -230 429 -233 535 -5
13 27 24 59 24 71 0 44 15 30 83 -74 347 -534 845 -872 1467 -996 199 -39 310
-50 545 -49 794 0 1414 287 1877 868 193 242 383 621 482 961 104 361 150 693
149 1079 0 252 -20 416 -77 636 l-34 129 26 115 c19 86 29 116 43 120 25 8 32
34 15 60 -13 20 -13 40 6 176 27 204 29 521 4 694 -70 482 -268 894 -599 1242
-240 253 -549 425 -857 478 -126 22 -319 22 -438 0 -86 -16 -94 -16 -115 -1
-274 202 -497 291 -809 325 -111 13 -438 12 -608 0z m1566 -1803 c238 -116
583 -319 794 -464 212 -146 370 -280 370 -312 0 -5 -15 -10 -34 -10 -45 0
-269 -42 -415 -77 -120 -30 -146 -47 -125 -80 10 -16 24 -17 115 -13 57 3 211
5 342 5 l239 0 24 -30 c37 -46 157 -297 199 -414 47 -133 89 -299 112 -443 24
-153 24 -542 -1 -748 -140 -1180 -760 -1984 -1696 -2199 -372 -86 -824 -79
-1195 19 -694 184 -1208 703 -1470 1483 l-34 102 24 13 c14 7 27 23 31 36 11
45 -10 62 -126 101 l-110 38 0 44 c0 72 -56 107 -100 63 -11 -11 -20 -27 -20
-36 0 -20 -15 -15 -89 29 -30 18 -92 68 -137 112 -69 68 -88 95 -127 175 -52
111 -67 165 -67 252 0 224 177 480 415 599 155 77 349 73 516 -12 115 -57 147
-97 269 -334 46 -88 90 -166 98 -173 31 -24 56 -11 151 81 53 52 175 159 272
239 96 81 204 177 239 215 116 126 217 302 255 449 8 32 25 131 36 219 27 212
53 337 94 459 19 56 33 88 31 71 -2 -16 -26 -184 -52 -372 -47 -335 -48 -342
-30 -362 22 -24 54 -27 79 -8 9 6 28 53 42 102 91 316 380 716 797 1102 79 73
150 133 159 133 9 0 65 -24 125 -54z m-2948 -3613 c68 -134 112 -249 112 -296
0 -18 -10 -53 -22 -77 -67 -132 -249 -132 -315 0 -30 57 -29 92 3 182 29 80
143 308 154 308 4 0 34 -53 68 -117z"/>
<path d="M5423 5505 c-118 -33 -238 -111 -370 -239 -91 -87 -105 -110 -81
-134 20 -20 35 -14 100 34 124 91 257 141 449 170 115 17 116 17 648 1 41 -2
56 2 65 16 21 33 -5 50 -120 79 -296 74 -581 105 -691 73z"/>
<path d="M5654 5151 c-35 -15 -83 -79 -99 -133 -32 -107 -10 -222 55 -292 36
-38 43 -41 90 -41 47 0 54 3 90 41 92 99 93 288 2 386 -39 42 -95 57 -138 39z"/>
<path d="M7034 5151 c-35 -15 -83 -79 -99 -133 -32 -107 -10 -222 55 -292 36
-38 43 -41 90 -41 47 0 54 3 90 41 92 99 93 288 2 386 -39 42 -95 57 -138 39z"/>
<path d="M6545 4583 c-99 -99 -100 -280 -2 -453 17 -30 70 -114 117 -186 47
-72 92 -150 100 -173 12 -39 12 -46 -6 -79 -43 -80 -179 -158 -370 -212 -148
-42 -186 -86 -132 -155 20 -25 26 -27 72 -22 71 7 235 62 335 111 95 47 197
134 239 205 22 37 27 58 27 111 0 83 -30 147 -157 342 -50 79 -102 167 -115
198 -31 75 -30 143 2 195 31 52 32 89 0 120 -33 34 -75 33 -110 -2z"/>
<path d="M2892 4174 c-28 -19 -52 -65 -52 -98 0 -28 85 -349 101 -377 24 -45
122 -65 167 -33 28 19 52 65 52 98 0 28 -85 349 -101 377 -24 45 -122 65 -167
33z"/>
<path d="M5436 2787 c-33 -33 -34 -80 -3 -110 40 -41 433 -113 676 -124 219
-9 433 24 583 90 82 37 103 93 52 143 -30 31 -49 29 -176 -16 -226 -80 -516
-78 -913 6 -191 40 -190 40 -219 11z"/>
</g>
</svg>
