<?xml version="1.0" standalone="no"?>
<!DOCTYPE svg PUBLIC "-//W3C//DTD SVG 20010904//EN"
 "http://www.w3.org/TR/2001/REC-SVG-20010904/DTD/svg10.dtd">
<svg version="1.0" xmlns="http://www.w3.org/2000/svg"
 width="700.000000pt" height="700.000000pt" viewBox="0 0 700.000000 700.000000"
 preserveAspectRatio="xMidYMid meet">
<metadata>
Created by potrace 1.14, written by Peter Selinger 2001-2017
</metadata>
<g transform="translate(0.000000,700.000000) scale(0.100000,-0.100000)"
fill="#000000" stroke="none">
<path d="M2925 5784 c-310 -44 -610 -157 -885 -335 -345 -223 -636 -560 -754
-872 -46 -122 -89 -308 -101 -435 -3 -32 -8 -77 -11 -102 -7 -65 -6 -628 1
-640 10 -16 -11 -19 -186 -22 -121 -3 -171 -7 -183 -17 -12 -10 -16 -32 -16
-97 0 -80 -1 -84 -22 -85 -49 -1 -92 -10 -105 -21 -11 -9 -13 -47 -12 -173 0
-128 -3 -169 -15 -192 -32 -63 -42 -144 -40 -338 1 -175 5 -225 20 -280 11
-36 63 -133 86 -160 58 -68 170 -128 262 -142 53 -9 376 -9 441 -1 28 4 77 16
109 27 33 12 61 21 63 21 1 0 3 -46 3 -102 0 -57 5 -120 11 -141 14 -50 71
-113 117 -128 54 -18 335 -19 389 -1 49 16 98 62 115 109 7 18 15 33 18 33 3
0 41 -34 85 -76 245 -234 558 -435 830 -534 50 -18 99 -36 110 -41 19 -8 89
-27 130 -35 23 -5 43 -8 140 -25 78 -13 474 -17 575 -6 232 27 448 134 612
303 31 33 67 73 80 89 12 17 25 32 28 35 10 9 100 149 100 156 0 4 6 15 13 23
14 17 62 121 104 226 62 157 116 382 148 624 14 98 17 157 22 376 4 188 8 239
23 280 17 49 33 118 46 200 3 22 8 47 9 55 2 8 4 30 4 47 1 27 7 36 40 52 l39
20 -2 198 -1 198 -53 11 c-29 7 -76 15 -104 18 -32 4 -72 19 -107 41 -31 18
-75 41 -97 50 -33 13 -56 36 -114 113 l-73 97 24 95 c12 52 24 102 26 110 1 8
11 55 22 104 16 71 20 130 21 301 1 194 -1 218 -21 280 -34 102 -145 213 -285
283 -79 40 -128 52 -228 56 l-83 3 -74 60 c-226 181 -421 268 -694 309 -81 12
-509 11 -600 -2z"/>
</g>
</svg>
